<?xml version="1.0" encoding="UTF-8" standalone="no"?>
<svg
   xmlns:dc="http://purl.org/dc/elements/1.1/"
   xmlns:cc="http://creativecommons.org/ns#"
   xmlns:rdf="http://www.w3.org/1999/02/22-rdf-syntax-ns#"
   xmlns:svg="http://www.w3.org/2000/svg"
   xmlns="http://www.w3.org/2000/svg"
   xmlns:sodipodi="http://sodipodi.sourceforge.net/DTD/sodipodi-0.dtd"
   xmlns:inkscape="http://www.inkscape.org/namespaces/inkscape"
   version="1.1"
   x="0px"
   y="0px"
   viewBox="0 0 100 125"
   enable-background="new 0 0 100 100"
   xml:space="preserve"
   id="svg8588"
   inkscape:version="0.91 r13725"
   sodipodi:docname="flaming_alpha.svg"
   inkscape:export-filename="/Users/danaspisak/Downloads/path8590.png"
   inkscape:export-xdpi="81.269997"
   inkscape:export-ydpi="81.269997"><metadata
     id="metadata8600"><rdf:RDF><cc:Work
         rdf:about=""><dc:format>image/svg+xml</dc:format><dc:type
           rdf:resource="http://purl.org/dc/dcmitype/StillImage" /><dc:title></dc:title></cc:Work></rdf:RDF></metadata><defs
     id="defs8598" /><sodipodi:namedview
     pagecolor="#ffffff"
     bordercolor="#666666"
     borderopacity="1"
     objecttolerance="10"
     gridtolerance="10"
     guidetolerance="10"
     inkscape:pageopacity="0"
     inkscape:pageshadow="2"
     inkscape:window-width="1680"
     inkscape:window-height="955"
     id="namedview8596"
     showgrid="false"
     inkscape:zoom="2.948"
     inkscape:cx="-57.581976"
     inkscape:cy="119.27488"
     inkscape:window-x="0"
     inkscape:window-y="44"
     inkscape:window-maximized="1"
     inkscape:current-layer="svg8588" /><path
     d="m 71.289525,33.989043 c -1.744195,-1.668462 -5.821879,-4.421144 -7.580493,-4.56123 1.366002,9.055129 0.623705,11.722415 0.623705,12.950415 0,0.248 -0.231895,1.794334 -0.225895,1.837334 -0.329807,2.505141 -2.773662,3.815749 -2.773662,3.815749 C 60.323574,46.536459 60.428,44.213 60.424,43.362 60.37,30.896 56.561,22.203 49.57,15.711 c -4.275,-3.97 -6.955509,-4.931902 -10.877,-4.739 0.410631,1.20682 1.318041,2.648615 1.340016,4.446607 C 39.629345,21.416065 36.61,26.86 30.304,33.995 24.377,40.702 17,49.05 17,61.349 c 0,12.04 8.296,23.297 19.444,28.54 1,0.47 -0.237885,-0.774 -0.945885,-1.622 C 33.050115,85.334 33.847,81.504 34.047,77.34 34.435,69.275 38.870115,49.417692 46.935115,49.045692 56.039115,48.624692 65.758,69.111 65.758,78.123 c 0,3.852 -1.375,7.38 -3.659,10.126 -0.719,0.865 0.214,2.125 1.232,1.647 11.154,-5.241 19.456,-16.501 19.456,-28.546 0,-10.452 -6.30907,-22.686658 -11.497475,-27.360957 z"
     id="path8590"
     style="fill:#ff0000"
     inkscape:connector-curvature="0"
     sodipodi:nodetypes="ccscccccccsccccsccsc" /><g
     id="g8673"
     transform="matrix(0.19475246,0,0,0.19475246,25.57202,45.528186)"><g
       id="g8662"
       transform="matrix(0.1,0,0,-0.1,0,299)"
       style="fill:#030303;stroke:none"><path
         d="M 935,2971 C 719,2932 570,2849 404,2677 301,2570 298,2566 244,2480 96,2244 26,1977 3,1570 -5,1408 22,1108 61,935 95,787 120,710 170,605 235,470 289,389 374,301 535,134 698,51 933,16 c 138,-20 174,-20 333,3 273,41 453,129 625,307 72,75 159,197 210,294 13,25 25,47 26,49 7,10 16,-12 28,-66 38,-172 95,-353 137,-438 36,-71 96,-123 166,-145 81,-25 106,-25 189,2 93,31 172,109 230,228 41,85 75,185 87,250 6,36 36,269 36,283 0,4 -24,7 -52,5 l -53,-3 -12,-87 c -25,-174 -109,-271 -248,-285 -163,-17 -292,149 -374,480 -22,85 -22,89 -5,145 20,68 47,175 74,292 11,47 29,126 41,175 11,50 29,129 40,178 10,48 28,128 39,177 11,50 29,131 40,180 11,50 29,132 41,183 11,50 29,130 39,177 11,47 29,128 40,180 12,52 31,136 42,185 11,50 22,100 25,113 l 5,22 -259,0 -260,0 -11,-62 c -6,-35 -22,-115 -37,-178 -14,-63 -32,-146 -40,-185 -8,-38 -26,-122 -40,-185 -14,-63 -31,-145 -37,-182 -11,-64 -23,-85 -33,-55 -83,257 -197,503 -292,632 -81,110 -186,200 -273,235 -19,7 -39,17 -45,21 -18,13 -168,41 -245,45 -46,2 -113,-3 -175,-15 z m 268,-221 c 176,-26 317,-158 456,-430 27,-52 61,-124 76,-160 14,-36 32,-78 39,-95 14,-30 78,-220 110,-323 9,-29 14,-57 11,-62 -3,-5 -14,-55 -25,-112 -11,-57 -29,-148 -41,-203 -11,-55 -27,-129 -34,-165 C 1757,1018 1687,793 1623,647 1467,288 1244,126 1002,196 936,215 882,250 824,312 769,369 736,423 694,528 603,754 565,1069 573,1530 c 11,571 90,900 261,1087 81,88 162,128 291,142 6,0 41,-4 78,-9 z"
         id="node1"
         class="node"
         inkscape:connector-curvature="0" /></g><g
       id="g8665"
       transform="matrix(0.1,0,0,-0.1,0,299)"
       style="fill:#a0a0a0;stroke:none" /></g></svg>